<svg width="20" height="20" viewBox="0 0 20 20" fill="none" xmlns="http://www.w3.org/2000/svg">
<path d="M17.1667 9.54055H19.0834C19.0834 4.6243 15.3717 0.916504 10.4488 0.916504V2.83317C14.3415 2.83317 17.1667 5.65355 17.1667 9.54055Z" fill="#BDBDBD"/>
<path d="M10.4584 6.66648C12.4737 6.66648 13.3334 7.5261 13.3334 9.54148H15.25C15.25 6.45085 13.549 4.74981 10.4584 4.74981V6.66648ZM13.7378 11.8827C13.5536 11.7153 13.3116 11.6261 13.0629 11.6337C12.8142 11.6414 12.5782 11.7455 12.4047 11.9239L10.1114 14.2824C9.55944 14.1769 8.44969 13.831 7.30736 12.6915C6.16503 11.5482 5.81907 10.4356 5.71653 9.88744L8.07307 7.59319C8.25171 7.41985 8.35591 7.18381 8.3636 6.93501C8.37129 6.68621 8.28187 6.44419 8.11428 6.26015L4.57323 2.36644C4.40557 2.18182 4.17254 2.06984 3.92363 2.05427C3.67473 2.0387 3.42956 2.12078 3.24019 2.28306L1.16061 4.06652C0.994924 4.23281 0.896032 4.45412 0.882693 4.68848C0.868318 4.92806 0.594234 10.6033 4.9949 15.0059C8.83398 18.844 13.6429 19.1248 14.9673 19.1248C15.1609 19.1248 15.2797 19.1191 15.3114 19.1171C15.5457 19.104 15.7669 19.0047 15.9324 18.8383L17.7149 16.7577C17.8773 16.5685 17.9595 16.3234 17.9441 16.0745C17.9287 15.8256 17.8169 15.5925 17.6324 15.4247L13.7378 11.8827Z" fill="#BDBDBD"/>
</svg>
